<svg xmlns="http://www.w3.org/2000/svg" fill="#fff" width="352.518" height="352.518"><path d="M176.259 0c-76.645 0-139 62.355-139 139 0 28.248 8.428 55.441 24.374 78.639 14.717 21.411 34.875 38.124 58.495 48.551l45.251 79.983a12.5 12.5 0 0 0 21.758 0l45.251-79.983c23.62-10.427 43.778-27.14 58.495-48.551 15.948-23.197 24.376-50.391 24.376-78.639 0-76.645-62.356-139-139-139zm42.664 244.742a12.506 12.506 0 0 0-6.198 5.436l-36.466 64.455-36.466-64.455a12.51 12.51 0 0 0-6.198-5.436C90.26 227.238 62.259 185.732 62.259 139c0-62.86 51.14-114 114-114s114 51.14 114 114c0 46.732-28.001 88.238-71.336 105.742z"/><path d="M176.259 85.759c-28.949 0-52.5 23.551-52.5 52.5s23.551 52.5 52.5 52.5 52.5-23.551 52.5-52.5-23.551-52.5-52.5-52.5zm0 80c-15.164 0-27.5-12.336-27.5-27.5s12.336-27.5 27.5-27.5 27.5 12.336 27.5 27.5-12.336 27.5-27.5 27.5z"/></svg>